<?xml version="1.0" standalone="no"?>
<!DOCTYPE svg PUBLIC "-//W3C//DTD SVG 20010904//EN"
 "http://www.w3.org/TR/2001/REC-SVG-20010904/DTD/svg10.dtd">
<svg version="1.0" xmlns="http://www.w3.org/2000/svg"
 width="512.000000pt" height="512.000000pt" viewBox="0 0 512.000000 512.000000"
 preserveAspectRatio="xMidYMid meet">
<metadata>
Created by potrace 1.14, written by Peter Selinger 2001-2017
</metadata>
<g transform="translate(0.000000,512.000000) scale(0.100000,-0.100000)"
fill="#000000" stroke="none">
<path d="M2468 5065 c-2 -1 -48 -5 -103 -9 -55 -4 -111 -9 -125 -11 -14 -2
-47 -6 -75 -10 -27 -4 -57 -9 -65 -10 -193 -41 -302 -73 -450 -132 -485 -192
-888 -516 -1170 -941 -183 -274 -309 -571 -375 -883 -2 -9 -6 -33 -9 -53 -3
-20 -9 -52 -12 -72 -3 -20 -7 -45 -9 -56 -17 -89 -23 -361 -11 -530 16 -234
84 -527 172 -738 74 -177 247 -479 335 -585 160 -192 250 -285 389 -401 239
-199 532 -362 825 -457 87 -29 306 -82 370 -91 230 -31 413 -38 620 -21 55 4
106 8 113 8 6 0 12 3 12 6 0 3 22 7 50 8 94 3 354 73 525 141 112 45 382 179
405 202 3 3 46 32 95 65 189 126 396 319 545 508 44 56 84 107 88 112 32 40
149 240 194 330 126 252 202 498 243 785 23 160 23 526 0 665 -40 237 -89 429
-140 550 -7 17 -23 55 -35 85 -134 331 -406 702 -685 935 -33 28 -62 52 -65
55 -3 3 -23 18 -45 35 -22 16 -42 32 -45 35 -3 3 -52 36 -110 74 -242 156
-622 312 -858 352 -12 2 -49 8 -82 14 -33 6 -70 12 -83 14 -69 12 -420 29
-429 21z"/>
</g>
</svg>
