<svg width="720" height="201" xmlns="http://www.w3.org/2000/svg" version="1.1">
 <g id="Layer_1">
  <title>Layer 1</title>
  <rect fill="none" stroke="#000" x="360.99506" y="7.98199" width="276" height="164" id="svg_1" rx="8" stroke-width="2"/>
  <rect fill="none" x="365.99506" y="13.98199" width="265" height="135" id="svg_2" stroke="#000" stroke-width="2"/>
  <ellipse fill="none" stroke="#000" cx="498.99507" cy="160.98218" id="svg_3" rx="6" ry="6" stroke-width="2"/>
  <rect fill="none" x="479.99507" y="171.98199" width="38" height="21" id="svg_4" stroke="#000" stroke-width="2"/>
  <rect fill="none" stroke="#000" x="470.74611" y="192.96413" width="56.49791" height="6.99974" id="svg_6" stroke-width="2"/>
  <rect fill="none" stroke="#000" x="63.00406" y="7.98199" width="276" height="164" id="svg_8" rx="8" stroke-width="2"/>
  <rect fill="none" x="68.00406" y="13.98199" width="265" height="135" id="svg_9" stroke="#000" stroke-width="2"/>
  <ellipse fill="none" stroke="#000" cx="202.00411" cy="159.98213" id="svg_10" rx="6" ry="6" stroke-width="2"/>
  <rect fill="none" x="182.00407" y="171.98199" width="38" height="21" id="svg_11" stroke="#000" stroke-width="2"/>
  <rect fill="none" stroke="#000" x="172.75511" y="192.96413" width="56.49791" height="6.99974" id="svg_12" stroke-width="2"/>
  <g id="svg_16" stroke-width="2">
   <rect fill="none" stroke="#000" x="251.48073" y="193.97675" width="192.99417" height="4.99985" id="svg_14"/>
   <rect fill="none" stroke="#000" x="258.23053" y="195.96399" width="181.49451" height="3.99988" id="svg_15"/>
  </g>
  <g id="svg_28" stroke-width="2">
   <path transform="rotate(-90 559.515 195.214)" fill="none" stroke="#000" d="m554.76536,183.9643l4.74985,0l0,0c2.62327,0 4.74985,5.03665 4.74985,11.24966c0,6.21302 -2.12658,11.24966 -4.74985,11.24966l-4.74985,0l0,-22.49932z" id="svg_24"/>
   <line fill="none" stroke="#000" x1="559.22143" y1="190.18912" x2="559.22143" y2="193.57867" id="svg_25"/>
  </g>
  <path fill="none" stroke="#000" d="m656.79257,191.77667l24.3888,0c3.51548,-0.0065 5.91378,-2.96313 5.90207,-6.00484l0,-2.04524c6.9602,-0.00546 12.00994,-5.23082 12.00734,-11.32386c0.0026,-6.20153 -4.94801,-11.29654 -10.71036,-11.29211l-37.59243,0l0,24.66173c0.00546,3.34897 2.89002,5.99833 6.00458,6.00432zm30.29009,-26.02712l0,0l1.29697,0c4.76849,-0.00755 6.29806,4.50207 6.27516,6.68702c0.00468,3.52797 -2.60825,6.91155 -7.57213,6.58321l0,-13.27022l0,-0.00001zm-49.73375,27.52885c0.00442,4.55853 3.47958,6.67245 6.27672,6.68546l50.45053,0c3.33648,-0.01301 6.26085,-2.63635 6.27568,-6.68546l-63.00294,0l0.00001,0z" id="svg_29" stroke-width="2"/>
 </g>

</svg>